<svg xmlns="http://www.w3.org/2000/svg" xmlns:xlink="http://www.w3.org/1999/xlink" viewBox="0 0 362 161" preserveAspectRatio="xMidYMid" style="display: block; shape-rendering: auto; background: transparent;" width="362" height="161"><style type="text/css">
  .ld-text text {
    text-anchor: middle;
    dominant-baseline: middle;
    font-size: 152px;
    opacity: 0;
    user-select: none;
    pointer-events: none;
  }
</style>
<g style="transform-origin:181px 80.5px;transform:scale(1)" class="ld-text">
<g transform="translate(181,80.5)">
  <g transform="scale(1.9000) translate(-4,11)"><g class="path" style="opacity: 1; transform-origin: -64.36px 16.3px; transform: matrix3d(1, 0, 0, 0, 0, 1, 0, 0, 0, 0, 1, 0, 0, 0, 0, 1); animation: 1.40845s linear -0.697183s infinite normal forwards running animate-zx6yxm13m4e; transform-box: view-box;"><path d="M3.76 54.72L3.76 54.72Q3.76 51.60 3.76 48.36Q3.76 45.12 3.76 42L3.76 42Q6.96 38.96 10.16 35.80Q13.36 32.64 16.56 29.60L16.56 29.60Q20.24 26 22.16 23.80Q24.08 21.60 24.84 20.08Q25.60 18.56 25.60 17.28L25.60 17.28Q25.60 14.64 22.56 13.48Q19.52 12.32 14.72 12.80Q9.92 13.28 4.48 15.44L4.48 15.44Q4.48 12.16 4.48 8.76Q4.48 5.36 4.48 2.08L4.48 2.08Q12.48-0.56 19-0.56Q25.52-0.56 30.20 1.56Q34.88 3.68 37.40 7.44Q39.92 11.20 39.92 16.16L39.92 16.16Q39.92 21.12 37.28 25.48Q34.64 29.84 29.20 35.12L29.20 35.12Q27.44 36.80 25.68 38.56Q23.92 40.32 22.16 42L22.16 42Q26.48 42 30.84 42Q35.20 42 39.52 42L39.52 42Q39.52 45.12 39.52 48.36Q39.52 51.60 39.52 54.72L39.52 54.72Q30.64 54.72 21.64 54.72Q12.64 54.72 3.76 54.72" style="fill: rgb(63, 211, 213);" transform="translate(-86.200,-27.360)"></path></g><g class="path" style="opacity: 1; transform-origin: -17.48px 17.15px; transform: matrix3d(1, 0, 0, 0, 0, 1, 0, 0, 0, 0, 1, 0, 0, 0, 0, 1); animation: 1.40845s linear -0.464789s infinite normal forwards running animate-zx6yxm13m4e; transform-box: view-box;"><path d="M68.72 55.84L68.72 55.84Q68.72 55.84 68.72 55.84Q68.72 55.84 68.72 55.84L68.72 55.84Q63.44 55.84 59.04 53.72Q54.64 51.60 51.48 47.76Q48.32 43.92 46.60 38.72Q44.88 33.52 44.88 27.44L44.88 27.44Q44.88 21.36 46.60 16.20Q48.32 11.04 51.48 7.24Q54.64 3.44 59.04 1.32Q63.44-0.80 68.72-0.80L68.72-0.80Q74-0.80 78.36 1.32Q82.72 3.44 85.92 7.24Q89.12 11.04 90.84 16.20Q92.56 21.36 92.56 27.44L92.56 27.44Q92.56 33.52 90.84 38.72Q89.12 43.92 85.92 47.76Q82.72 51.60 78.36 53.72Q74 55.84 68.72 55.84 zM68.72 42.64L68.72 42.64Q68.72 42.64 68.72 42.64Q68.72 42.64 68.72 42.64L68.72 42.64Q71.92 42.64 74.12 40.76Q76.32 38.88 77.52 35.44Q78.72 32 78.72 27.44L78.72 27.44Q78.72 22.88 77.52 19.48Q76.32 16.08 74.12 14.24Q71.92 12.40 68.72 12.40L68.72 12.40Q65.60 12.40 63.36 14.24Q61.12 16.08 59.92 19.44Q58.72 22.80 58.72 27.44L58.72 27.44Q58.72 32 59.92 35.44Q61.12 38.88 63.36 40.76Q65.60 42.64 68.72 42.64" style="fill: rgb(87, 199, 32);" transform="translate(-86.200,-27.360)"></path></g><g class="path" style="opacity: 1; transform-origin: 29.4px 16.3px; transform: matrix3d(1, 0, 0, 0, 0, 1, 0, 0, 0, 0, 1, 0, 0, 0, 0, 1); animation: 1.40845s linear -0.232394s infinite normal forwards running animate-zx6yxm13m4e; transform-box: view-box;"><path d="M97.52 54.72L97.52 54.72Q97.52 51.60 97.52 48.36Q97.52 45.12 97.52 42L97.52 42Q100.72 38.96 103.92 35.80Q107.12 32.64 110.32 29.60L110.32 29.60Q114 26 115.92 23.80Q117.84 21.60 118.60 20.08Q119.36 18.56 119.36 17.28L119.36 17.28Q119.36 14.64 116.32 13.48Q113.28 12.32 108.48 12.80Q103.68 13.28 98.24 15.44L98.24 15.44Q98.24 12.16 98.24 8.76Q98.24 5.36 98.24 2.08L98.24 2.08Q106.24-0.56 112.76-0.56Q119.28-0.56 123.96 1.56Q128.64 3.68 131.16 7.44Q133.68 11.20 133.68 16.16L133.68 16.16Q133.68 21.12 131.04 25.48Q128.40 29.84 122.96 35.12L122.96 35.12Q121.20 36.80 119.44 38.56Q117.68 40.32 115.92 42L115.92 42Q120.24 42 124.60 42Q128.96 42 133.28 42L133.28 42Q133.28 45.12 133.28 48.36Q133.28 51.60 133.28 54.72L133.28 54.72Q124.40 54.72 115.40 54.72Q106.40 54.72 97.52 54.72" style="fill: rgb(245, 202, 76);" transform="translate(-86.200,-27.360)"></path></g><g class="path" style="opacity: 1; transform-origin: 71.8px 16.87px; transform: matrix3d(1, 0, 0, 0, 0, 1, 0, 0, 0, 0, 1, 0, 0, 0, 0, 1); animation: 1.40845s linear 0s infinite normal forwards running animate-zx6yxm13m4e; transform-box: view-box;"><path d="M140.48 31.92L140.48 31.92Q141.20 24.08 141.92 16.08Q142.64 8.08 143.36 0.32L143.36 0.32Q150.72 0.32 158.32 0.32Q165.92 0.32 173.28 0.32L173.28 0.32Q173.28 3.44 173.28 6.68Q173.28 9.92 173.28 13.04L173.28 13.04Q168.88 13.04 164.32 13.04Q159.76 13.04 155.28 13.04L155.28 13.04Q155.12 14.56 154.88 16.20Q154.64 17.84 154.48 19.44L154.48 19.44Q161.28 19.36 166.12 21.36Q170.96 23.36 173.56 27.28Q176.16 31.20 176.16 37.04L176.16 37.04Q176.16 43.28 173.20 47.32Q170.24 51.36 165.16 53.32Q160.08 55.28 153.56 55.20Q147.04 55.12 139.84 53.04L139.84 53.04Q139.84 49.76 139.84 46.36Q139.84 42.96 139.84 39.68L139.84 39.68Q146.48 41.76 151.56 42.36Q156.64 42.96 159.52 41.76Q162.40 40.56 162.40 37.44L162.40 37.44Q162.40 34.32 159.48 32.80Q156.56 31.28 151.60 31.08Q146.64 30.88 140.48 31.92" style="fill: rgb(239, 65, 102);" transform="translate(-86.200,-27.360)"></path></g></g><text dy="0.35em" fill="#3fd3d5" font-family="Tilt Warp" font-size="152">2025</text>
</g>
</g><style type="text/css">@keyframes animate-zx6yxm13m4e { 0.00% {transform: translate(0.00px,0.00px) rotate(0.00deg) scale(1.00, 1.00) skew(0deg, 0.00deg) ;opacity: 1.00;}2.00% {animation-timing-function: cubic-bezier(0.20,0.39,0.50,0.97);transform: translate(0.00px,-1.08px) rotate(0.00deg) ;}36.00% {animation-timing-function: cubic-bezier(0.50,0.03,0.80,0.61);transform: translate(0.00px,-10.00px) rotate(0.00deg) ;}72.00% {transform: translate(0.00px,-0.12px) rotate(0.00deg) ;}74.00% {animation-timing-function: cubic-bezier(0.24,0.43,0.48,0.91);transform: translate(0.00px,0.00px) rotate(0.00deg) scale(1.00, 0.95) ;}86.00% {animation-timing-function: cubic-bezier(0.53,0.08,0.77,0.57);transform: translate(0.00px,0.00px) rotate(0.00deg) scale(1.00, 0.80) ;}100.00% {animation-timing-function: cubic-bezier(0.53,0.08,0.77,0.57);transform: translate(0.00px,0.00px) rotate(0.00deg) scale(1.00, 1.00) ;} }</style><!-- [ldio] generated by https://loading.io --></svg>