<svg xmlns="http://www.w3.org/2000/svg" xmlns:xlink="http://www.w3.org/1999/xlink" viewBox="0 0 202 97" preserveAspectRatio="xMidYMid" style="display: block; shape-rendering: auto; background: transparent;" width="202" height="97"><style type="text/css">
  .ld-text text {
    text-anchor: middle;
    dominant-baseline: middle;
    font-size: 80px;
    opacity: 0;
    user-select: none;
    pointer-events: none;
  }
</style>
<g style="transform-origin:101px 48.5px;transform:scale(1)" class="ld-text">
<g transform="translate(101,48.5)">
  <g transform="scale(1.0000) translate(0,0)"><g class="path" style="opacity: 1; transform-origin: -70.84px 16.86px; transform: matrix3d(1, 0, 0, 0, 0, 1, 0, 0, 0, 0, 1, 0, 0, 0, 0, 1); animation: 1s linear -0.495s infinite normal forwards running animate-7otpoqjqkac; transform-box: view-box;"><path d="M2.80 11.84Q2.80 6.48 7.44 3.04Q12.08-0.40 21.36-0.40Q30.64-0.40 35.64 3.04Q40.64 6.48 40.64 13.36L40.64 13.36Q40.64 15.60 40.24 17.40Q39.84 19.20 38.44 21.16Q37.04 23.12 35.72 24.64Q34.40 26.16 31.20 28.64L31.20 28.64Q26.40 32.48 21.12 36.28Q15.84 40.08 14.96 40.72L14.96 40.72L10.08 44.24L29.28 44.24Q34.80 44.24 37.12 41.84Q39.44 39.44 40.40 34.32L40.40 34.32L41.76 34.32L40.96 56.48L3.36 56.48L3.36 47.20L11.44 39.76Q19.68 32.24 23.12 26.36Q26.56 20.48 26.56 13.40Q26.56 6.32 25.04 3.72Q23.52 1.12 19.92 1.12Q16.32 1.12 14.88 2.96Q13.44 4.80 13.44 6.48Q13.44 8.16 13.92 9.44L13.92 9.44L16.32 9.44Q16.96 11.12 16.96 13.48Q16.96 15.84 14.96 17.56Q12.96 19.28 9.68 19.28Q6.40 19.28 4.60 17.16Q2.80 15.04 2.80 11.84L2.80 11.84" style="fill: rgb(228, 26, 28);" transform="translate(-93.120,-28.240)"></path></g><g class="path" style="opacity: 1; transform-origin: -22.4px 17.5px; transform: matrix3d(1, 0, 0, 0, 0, 1, 0, 0, 0, 0, 1, 0, 0, 0, 0, 1); animation: 1s linear -0.33s infinite normal forwards running animate-7otpoqjqkac; transform-box: view-box;"><path d="M70.28 57.28Q58.64 57.28 52.60 49.44Q46.56 41.60 46.56 27.52Q46.56 13.44 53.04 6.52Q59.52-0.40 70.76-0.40Q82-0.40 88.44 6.48Q94.88 13.36 94.88 28.40Q94.88 43.44 88.40 50.36Q81.92 57.28 70.28 57.28 zM62.96 25.44L62.96 25.44L62.96 32.56Q62.96 40.32 63.08 43.52Q63.20 46.72 63.92 50.16Q64.64 53.60 66.24 54.60Q67.84 55.60 70 55.60Q72.16 55.60 73.24 55.36Q74.32 55.12 75.16 54.36Q76 53.60 76.56 52.84Q77.12 52.08 77.48 50.48Q77.84 48.88 78.08 47.52Q78.32 46.16 78.40 43.52L78.40 43.52Q78.56 38.40 78.56 33.20L78.56 33.20L78.56 26.16Q78.56 10.48 77.40 5.88Q76.24 1.28 70.80 1.28Q65.36 1.28 64.16 6Q62.96 10.72 62.96 25.44" style="fill: rgb(55, 126, 184);" transform="translate(-93.120,-28.240)"></path></g><g class="path" style="opacity: 1; transform-origin: 26.44px 16.86px; transform: matrix3d(1, 0, 0, 0, 0, 1, 0, 0, 0, 0, 1, 0, 0, 0, 0, 1); animation: 1s linear -0.165s infinite normal forwards running animate-7otpoqjqkac; transform-box: view-box;"><path d="M100.08 11.84Q100.08 6.48 104.72 3.04Q109.36-0.40 118.64-0.40Q127.92-0.40 132.92 3.04Q137.92 6.48 137.92 13.36L137.92 13.36Q137.92 15.60 137.52 17.40Q137.12 19.20 135.72 21.16Q134.32 23.12 133 24.64Q131.68 26.16 128.48 28.64L128.48 28.64Q123.68 32.48 118.40 36.28Q113.12 40.08 112.24 40.72L112.24 40.72L107.36 44.24L126.56 44.24Q132.08 44.24 134.40 41.84Q136.72 39.44 137.68 34.32L137.68 34.32L139.04 34.32L138.24 56.48L100.64 56.48L100.64 47.20L108.72 39.76Q116.96 32.24 120.40 26.36Q123.84 20.48 123.84 13.40Q123.84 6.32 122.32 3.72Q120.80 1.12 117.20 1.12Q113.60 1.12 112.16 2.96Q110.72 4.80 110.72 6.48Q110.72 8.16 111.20 9.44L111.20 9.44L113.60 9.44Q114.24 11.12 114.24 13.48Q114.24 15.84 112.24 17.56Q110.24 19.28 106.96 19.28Q103.68 19.28 101.88 17.16Q100.08 15.04 100.08 11.84L100.08 11.84" style="fill: rgb(77, 175, 74);" transform="translate(-93.120,-28.240)"></path></g><g class="path" style="opacity: 1; transform-origin: 73.48px 17.5px; transform: matrix3d(1, 0, 0, 0, 0, 1, 0, 0, 0, 0, 1, 0, 0, 0, 0, 1); animation: 1s linear 0s infinite normal forwards running animate-7otpoqjqkac; transform-box: view-box;"><path d="M144.16 31.84L144.16 31.84Q144.16 16.40 151.08 8Q158-0.40 170.08-0.40L170.08-0.40Q178.32-0.40 182.72 2.92Q187.12 6.24 187.12 11.60L187.12 11.60Q187.12 14.64 185.16 16.84Q183.20 19.04 180 19.04Q176.80 19.04 174.88 17.32Q172.96 15.60 172.96 13.24Q172.96 10.88 173.60 9.12L173.60 9.12L176.16 9.12Q176.64 7.84 176.64 6.24L176.64 6.24Q176.64 1.20 170.96 1.20Q165.28 1.20 162.64 7.08Q160 12.96 159.92 27.36L159.92 27.36Q164.08 20.88 172 20.88Q179.92 20.88 184.48 25.16Q189.04 29.44 189.04 38Q189.04 46.56 183.04 51.92Q177.04 57.28 166.96 57.28L166.96 57.28Q144.16 57.28 144.16 31.84 zM167.92 23.52Q165.20 23.52 163.32 25.56Q161.44 27.60 160.76 30.36Q160.08 33.12 160.08 37.56Q160.08 42 160.12 43.72Q160.16 45.44 160.36 47.80Q160.56 50.16 160.96 51.24Q161.36 52.32 162.08 53.52L162.08 53.52Q163.36 55.60 166.16 55.60Q168.96 55.60 170.36 54.52Q171.76 53.44 172.40 50.88L172.40 50.88Q173.36 47.12 173.36 41.52Q173.36 35.92 173.32 34.08Q173.28 32.24 173.12 30.20Q172.96 28.16 172.60 27.12Q172.24 26.08 171.68 25.12L171.68 25.12Q170.64 23.52 167.92 23.52" style="fill: rgb(152, 78, 163);" transform="translate(-93.120,-28.240)"></path></g></g><text dy="0.35em" fill="#e41a1c" font-family="Abril Fatface" font-size="80">2026</text>
</g>
</g><style type="text/css">@keyframes animate-7otpoqjqkac { 0.00% {transform: translate(0.00px,0.00px) rotate(0.00deg) scale(1.00, 1.00) skew(0deg, 0.00deg) ;opacity: 1.00;}2.00% {animation-timing-function: cubic-bezier(0.20,0.39,0.50,0.97);transform: translate(0.00px,-1.08px) rotate(0.00deg) ;}36.00% {animation-timing-function: cubic-bezier(0.50,0.03,0.80,0.61);transform: translate(0.00px,-10.00px) rotate(0.00deg) ;}72.00% {transform: translate(0.00px,0.00px) rotate(0.00deg) ;}74.00% {animation-timing-function: cubic-bezier(0.23,0.43,0.48,0.91);transform: translate(0.00px,0.00px) rotate(0.00deg) scale(1.00, 0.95) ;}86.00% {animation-timing-function: cubic-bezier(0.52,0.09,0.77,0.57);transform: translate(0.00px,0.00px) rotate(0.00deg) scale(1.00, 0.80) ;}100.00% {animation-timing-function: cubic-bezier(0.52,0.09,0.77,0.57);transform: translate(0.00px,0.00px) rotate(0.00deg) scale(1.00, 1.00) ;} }</style><!-- [ldio] generated by https://loading.io --></svg>