<svg xmlns="http://www.w3.org/2000/svg" xmlns:xlink="http://www.w3.org/1999/xlink" viewBox="0 0 247 61" preserveAspectRatio="xMidYMid" style="display: block; shape-rendering: auto; background: transparent;" width="247" height="61"><style type="text/css">
  .ld-text text {
    text-anchor: middle;
    dominant-baseline: middle;
    font-size: 79px;
    opacity: 0;
    user-select: none;
    pointer-events: none;
  }
</style>
<g style="transform-origin:123.5px 30.5px;transform:scale(1)" class="ld-text">
<g transform="translate(123.5,30.5)">
  <g transform="scale(0.9875) translate(-4,1)"><g class="path" style="opacity: 1; transform-origin: -91.15px -0.24px; transform: matrix3d(0.91, 0, 0, 0, 0, 0.91, 0, 0, 0, 0, 0.91, 0, 0, 0, 0, 1); animation: 1.03093s linear -0.773196s infinite normal forwards running animate-qn1gvq0kjfc; transform-box: view-box;"><path d="M55.70 17.57L55.70 17.57Q55.70 21.05 54.77 23.57Q53.83 26.09 52.23 27.89Q50.63 29.68 48.46 30.91Q46.29 32.14 43.83 33.08Q41.37 34.02 38.73 34.76Q36.09 35.50 33.52 36.32Q30.94 37.14 28.55 38.20Q26.17 39.25 24.26 40.80Q22.34 42.34 20.98 44.51Q19.61 46.68 19.10 49.72L19.10 49.72L55.70 49.72L55.70 56.91L2.42 56.91Q3.28 51.52 4.88 47.59Q6.48 43.67 8.59 40.86Q10.70 38.04 13.18 36.15Q15.66 34.25 18.28 32.95Q20.90 31.64 23.55 30.76Q26.21 29.88 28.67 29.06Q31.13 28.24 33.26 27.32Q35.39 26.40 36.97 25.03Q38.55 23.67 39.45 21.70Q40.35 19.72 40.35 16.79L40.35 16.79Q40.35 14.14 39.45 12.14Q38.55 10.15 36.99 8.82Q35.43 7.50 33.30 6.83Q31.17 6.17 28.75 6.17L28.75 6.17Q26.21 6.17 24.04 7.11Q21.88 8.04 20.14 9.74Q18.40 11.44 17.13 13.82Q15.86 16.21 15.20 19.14L15.20 19.14L3.20 12.50Q4.80 9.21 7.75 6.79Q10.70 4.37 14.30 2.75Q17.89 1.13 21.78 0.33Q25.66-0.47 29.14-0.47L29.14-0.47Q32.50-0.47 35.78-0.20Q39.06 0.07 42.01 0.82Q44.96 1.56 47.46 2.85Q49.96 4.14 51.80 6.15Q53.63 8.16 54.67 10.97Q55.70 13.78 55.70 17.57" style="fill: rgb(254, 196, 0);" transform="translate(-120.215,-28.457)"></path></g><g class="path" style="opacity: 1; transform-origin: -28.65px 0.23px; transform: matrix3d(0.91, 0, 0, 0, 0, 0.91, 0, 0, 0, 0, 0.91, 0, 0, 0, 0, 1); animation: 1.03093s linear -0.515464s infinite normal forwards running animate-qn1gvq0kjfc; transform-box: view-box;"><path d="M119.53 28.71L119.53 28.71Q119.53 33.86 118.36 38.02Q117.19 42.18 115.14 45.45Q113.09 48.71 110.35 51.09Q107.62 53.47 104.49 55.02Q101.37 56.56 98.01 57.30Q94.65 58.04 91.37 58.04L91.37 58.04Q88.05 58.04 84.69 57.24Q81.33 56.44 78.24 54.82Q75.16 53.20 72.48 50.78Q69.80 48.36 67.83 45.09Q65.86 41.83 64.73 37.73Q63.59 33.63 63.59 28.71L63.59 28.71Q63.59 23.51 64.75 19.33Q65.90 15.15 67.89 11.87Q69.88 8.59 72.58 6.23Q75.27 3.86 78.36 2.34Q81.45 0.82 84.77 0.07Q88.09-0.67 91.37-0.67L91.37-0.67Q94.88-0.67 98.36 0.07Q101.84 0.82 104.96 2.34Q108.09 3.86 110.76 6.23Q113.44 8.59 115.37 11.87Q117.30 15.15 118.42 19.33Q119.53 23.51 119.53 28.71 zM104.14 28.71L104.14 28.71Q104.14 26.13 103.89 23.43Q103.63 20.74 103.07 18.20Q102.50 15.66 101.54 13.43Q100.59 11.21 99.16 9.55Q97.73 7.89 95.80 6.93Q93.87 5.97 91.37 5.97L91.37 5.97Q89.06 5.97 87.25 6.93Q85.43 7.89 84.04 9.53Q82.66 11.17 81.70 13.39Q80.74 15.62 80.14 18.14Q79.53 20.66 79.26 23.37Q78.98 26.09 78.98 28.71L78.98 28.71Q78.98 31.28 79.26 33.98Q79.53 36.68 80.14 39.20Q80.74 41.71 81.70 43.94Q82.66 46.17 84.04 47.83Q85.43 49.49 87.25 50.46Q89.06 51.44 91.37 51.44L91.37 51.44Q93.55 51.44 95.37 50.45Q97.19 49.45 98.61 47.75Q100.04 46.05 101.07 43.80Q102.11 41.56 102.79 39.04Q103.48 36.52 103.81 33.86Q104.14 31.21 104.14 28.71" style="fill: rgb(0, 255, 235);" transform="translate(-120.215,-28.457)"></path></g><g class="path" style="opacity: 1; transform-origin: 32.17px -0.24px; transform: matrix3d(0.91, 0, 0, 0, 0, 0.91, 0, 0, 0, 0, 0.91, 0, 0, 0, 0, 1); animation: 1.03093s linear -0.257732s infinite normal forwards running animate-qn1gvq0kjfc; transform-box: view-box;"><path d="M179.02 17.57L179.02 17.57Q179.02 21.05 178.09 23.57Q177.15 26.09 175.55 27.89Q173.95 29.68 171.78 30.91Q169.61 32.14 167.15 33.08Q164.69 34.02 162.05 34.76Q159.41 35.50 156.84 36.32Q154.26 37.14 151.88 38.20Q149.49 39.25 147.58 40.80Q145.66 42.34 144.30 44.51Q142.93 46.68 142.42 49.72L142.42 49.72L179.02 49.72L179.02 56.91L125.74 56.91Q126.60 51.52 128.20 47.59Q129.80 43.67 131.91 40.86Q134.02 38.04 136.50 36.15Q138.98 34.25 141.60 32.95Q144.22 31.64 146.88 30.76Q149.53 29.88 151.99 29.06Q154.45 28.24 156.58 27.32Q158.71 26.40 160.29 25.03Q161.88 23.67 162.77 21.70Q163.67 19.72 163.67 16.79L163.67 16.79Q163.67 14.14 162.77 12.14Q161.88 10.15 160.31 8.82Q158.75 7.50 156.62 6.83Q154.49 6.17 152.07 6.17L152.07 6.17Q149.53 6.17 147.36 7.11Q145.20 8.04 143.46 9.74Q141.72 11.44 140.45 13.82Q139.18 16.21 138.52 19.14L138.52 19.14L126.52 12.50Q128.13 9.21 131.07 6.79Q134.02 4.37 137.62 2.75Q141.21 1.13 145.10 0.33Q148.98-0.47 152.46-0.47L152.46-0.47Q155.82-0.47 159.10-0.20Q162.38 0.07 165.33 0.82Q168.28 1.56 170.78 2.85Q173.28 4.14 175.12 6.15Q176.95 8.16 177.99 10.97Q179.02 13.78 179.02 17.57" style="fill: rgb(251, 15, 107);" transform="translate(-120.215,-28.457)"></path></g><g class="path" style="opacity: 1; transform-origin: 94.67px 0.23px; transform: matrix3d(0.91, 0, 0, 0, 0, 0.91, 0, 0, 0, 0, 0.91, 0, 0, 0, 0, 1); animation: 1.03093s linear 0s infinite normal forwards running animate-qn1gvq0kjfc; transform-box: view-box;"><path d="M242.85 38.47L242.85 38.47Q242.85 43.75 240.59 47.46Q238.32 51.17 234.45 53.51Q230.59 55.86 225.47 56.95Q220.35 58.04 214.69 58.04L214.69 58.04Q211.64 58.04 208.40 57.46Q205.16 56.87 202.07 55.56Q198.98 54.25 196.23 52.16Q193.48 50.07 191.41 47.03Q189.34 43.98 188.13 39.92Q186.91 35.86 186.91 30.66L186.91 30.66Q186.91 25.82 187.95 21.62Q188.98 17.42 190.88 13.94Q192.77 10.46 195.45 7.75Q198.13 5.03 201.41 3.16Q204.69 1.28 208.50 0.31Q212.30-0.67 216.45-0.67L216.45-0.67Q220.43-0.67 223.81-0.22Q227.19 0.23 230.18 1.32Q233.16 2.42 235.86 4.23Q238.55 6.05 241.21 8.75L241.21 8.75L234.53 16.64Q233.71 14.49 232.32 12.55Q230.94 10.62 229.10 9.16Q227.27 7.69 225.02 6.83Q222.77 5.97 220.16 5.97L220.16 5.97Q216.48 5.97 213.26 7.16Q210.04 8.36 207.56 10.76Q205.08 13.16 203.50 16.81Q201.91 20.46 201.52 25.43L201.52 25.43Q203.20 23.43 205.23 22.16Q207.27 20.89 209.41 20.15Q211.56 19.41 213.71 19.14Q215.86 18.86 217.81 18.86L217.81 18.86Q223.09 18.86 227.66 20.02Q232.23 21.17 235.61 23.57Q238.98 25.97 240.92 29.66Q242.85 33.36 242.85 38.47 zM227.46 38.47L227.46 38.47Q227.46 35.15 226.43 32.71Q225.39 30.27 223.63 28.67Q221.88 27.07 219.55 26.28Q217.23 25.50 214.69 25.50L214.69 25.50Q212.23 25.50 210 26.32Q207.77 27.14 206.05 28.77Q204.34 30.39 203.32 32.83Q202.30 35.27 202.30 38.47L202.30 38.47Q202.30 41.32 203.34 43.71Q204.38 46.09 206.11 47.81Q207.85 49.53 210.08 50.48Q212.30 51.44 214.69 51.44L214.69 51.44Q217.07 51.44 219.38 50.56Q221.68 49.68 223.48 48.02Q225.27 46.36 226.37 43.96Q227.46 41.56 227.46 38.47" style="fill: rgb(213, 255, 0);" transform="translate(-120.215,-28.457)"></path></g></g><text dy="0.35em" fill="#fec400" font-family="Aclonica" font-size="79">2026</text>
</g>
</g><style type="text/css">@keyframes animate-qn1gvq0kjfc { 0.00% {transform: translate(0.00px,0.00px) rotate(0.00deg) scale(0.91, 0.91) skew(0deg, 0.00deg) ;opacity: 1.00;}4.00% {transform: translate(0.00px,0.00px) rotate(0.00deg) scale(0.91, 0.91) ;}8.00% {animation-timing-function: cubic-bezier(0.69,0.60,0.35,0.27);transform: translate(0.00px,0.00px) rotate(0.00deg) scale(0.91, 0.91) ;}14.00% {transform: translate(0.00px,0.00px) rotate(0.00deg) scale(0.93, 0.93) ;}18.00% {transform: translate(0.00px,0.00px) rotate(0.00deg) scale(0.94, 0.94) ;}22.00% {animation-timing-function: cubic-bezier(0.67,0.66,0.34,0.33);transform: translate(0.00px,0.00px) rotate(0.00deg) scale(0.96, 0.96) ;}26.00% {transform: translate(0.00px,0.00px) rotate(0.00deg) scale(0.97, 0.97) ;}30.00% {transform: translate(0.00px,0.00px) rotate(0.00deg) scale(0.99, 0.99) ;}34.00% {animation-timing-function: cubic-bezier(0.65,0.71,0.32,0.38);transform: translate(0.00px,0.00px) rotate(0.00deg) scale(1.01, 1.01) ;}40.00% {animation-timing-function: cubic-bezier(0.64,0.74,0.31,0.41);transform: translate(0.00px,0.00px) rotate(0.00deg) scale(1.02, 1.02) ;}46.00% {animation-timing-function: cubic-bezier(0.60,0.91,0.23,0.63);transform: translate(0.00px,0.00px) rotate(0.00deg) scale(1.03, 1.03) ;}50.00% {transform: translate(0.00px,0.00px) rotate(0.00deg) scale(1.03, 1.03) ;}54.00% {transform: translate(0.00px,0.00px) rotate(0.00deg) scale(1.03, 1.03) ;}58.00% {animation-timing-function: cubic-bezier(0.69,0.60,0.35,0.27);transform: translate(0.00px,0.00px) rotate(0.00deg) scale(1.03, 1.03) ;}64.00% {transform: translate(0.00px,0.00px) rotate(0.00deg) scale(1.01, 1.01) ;}68.00% {transform: translate(0.00px,0.00px) rotate(0.00deg) scale(1.00, 1.00) ;}72.00% {animation-timing-function: cubic-bezier(0.67,0.66,0.34,0.33);transform: translate(0.00px,0.00px) rotate(0.00deg) scale(0.98, 0.98) ;}76.00% {animation-timing-function: cubic-bezier(0.66,0.68,0.33,0.35);transform: translate(0.00px,0.00px) rotate(0.00deg) scale(0.97, 0.97) ;}82.00% {animation-timing-function: cubic-bezier(0.65,0.71,0.32,0.38);transform: translate(0.00px,0.00px) rotate(0.00deg) scale(0.94, 0.94) ;}88.00% {animation-timing-function: cubic-bezier(0.65,0.73,0.31,0.40);transform: translate(0.00px,0.00px) rotate(0.00deg) scale(0.92, 0.92) ;}94.00% {animation-timing-function: cubic-bezier(0.63,0.80,0.28,0.48);transform: translate(0.00px,0.00px) rotate(0.00deg) scale(0.91, 0.91) ;}100.00% {animation-timing-function: cubic-bezier(0.63,0.80,0.28,0.48);transform: translate(0.00px,0.00px) rotate(0.00deg) scale(0.91, 0.91) ;} }</style><!-- [ldio] generated by https://loading.io --></svg>