<svg xmlns="http://www.w3.org/2000/svg" xmlns:xlink="http://www.w3.org/1999/xlink" viewBox="0 0 300 150" preserveAspectRatio="xMidYMid" style="display: block; shape-rendering: auto; background: transparent;" width="300" height="150"><style type="text/css">
  .ld-text text {
    text-anchor: middle;
    dominant-baseline: middle;
    font-size: 140px;
    opacity: 0;
    user-select: none;
    pointer-events: none;
  }
</style>
<g style="transform-origin:150px 75px;transform:scale(1)" class="ld-text">
<g transform="translate(150,75)">
  <g transform="scale(1.7500) translate(0,0)"><g class="path" style="opacity: 1; transform-origin: -59.6px 12.35px; transform: matrix3d(1, 0, 0, 0, 0, 1, 0, 0, 0, 0, 1, 0, 0, 0, 0, 1); animation: 1s linear -0.495s infinite normal forwards running animate-jj0m1gv3emf; transform-box: view-box;"><path d="M33.28 41.66L6.48 41.66Q4.96 41.66 4.32 40.86Q3.68 40.06 3.68 38.78L3.68 38.78Q3.84 36.94 4.72 35.90Q5.60 34.86 7.36 33.74L7.36 33.74Q10.32 31.74 13.60 29.42Q16.88 27.10 19.76 24.26Q22.64 21.42 24.44 17.98Q26.24 14.54 26.24 10.22L26.24 10.22Q26.24 6.38 24.20 4.26Q22.16 2.14 18.48 2.14L18.48 2.14Q15.44 2.14 13.36 3.66Q11.28 5.18 11.28 7.98L11.28 7.98Q11.28 9.34 11.92 10.26Q12.56 11.18 13.24 11.70Q13.92 12.22 13.92 12.38L13.92 12.38Q13.92 12.78 12.96 13.66Q12 14.54 10.24 14.54L10.24 14.54Q7.68 14.54 6.24 12.94Q4.80 11.34 4.80 9.02L4.80 9.02Q4.80 5.58 7.08 3.42Q9.36 1.26 12.68 0.26Q16-0.74 19.20-0.74L19.20-0.74Q22.72-0.74 26.12 0.42Q29.52 1.58 31.72 4.22Q33.92 6.86 33.92 11.26L33.92 11.26Q33.92 14.94 32.28 17.94Q30.64 20.94 28 23.42Q25.36 25.90 22.28 27.98Q19.20 30.06 16.16 31.90Q13.12 33.74 10.80 35.58L10.80 35.58L10.80 35.98L32.24 35.98Q33.84 35.98 34.96 36.34Q36.08 36.70 36.08 38.78L36.08 38.78Q36.08 41.66 33.28 41.66L33.28 41.66" style="fill: rgb(255, 22, 70);" transform="translate(-79.480,-20.829)"></path></g><g class="path" style="opacity: 1; transform-origin: -16.76px 13.63px; transform: matrix3d(1, 0, 0, 0, 0, 1, 0, 0, 0, 0, 1, 0, 0, 0, 0, 1); animation: 1s linear -0.33s infinite normal forwards running animate-jj0m1gv3emf; transform-box: view-box;"><path d="M62.72 43.26L62.72 43.26Q56.24 43.26 52 40.10Q47.76 36.94 45.72 31.90Q43.68 26.86 43.68 21.18L43.68 21.18Q43.68 15.42 45.72 10.42Q47.76 5.42 52 2.34Q56.24-0.74 62.72-0.74L62.72-0.74Q68.96-0.74 73.20 2.38Q77.44 5.50 79.60 10.50Q81.76 15.50 81.76 21.18L81.76 21.18Q81.76 25.34 80.52 29.30Q79.28 33.26 76.88 36.42Q74.48 39.58 70.92 41.42Q67.36 43.26 62.72 43.26 zM62.80 40.30L62.80 40.30Q68.16 40.30 71.12 35.38Q74.08 30.46 74.08 21.18L74.08 21.18Q74.08 11.90 71.12 7.06Q68.16 2.22 62.80 2.22L62.80 2.22Q57.28 2.22 54.32 7.06Q51.36 11.90 51.36 21.18L51.36 21.18Q51.36 30.46 54.32 35.38Q57.28 40.30 62.80 40.30" style="fill: rgb(255, 174, 58);" transform="translate(-79.480,-20.829)"></path></g><g class="path" style="opacity: 1; transform-origin: 26.48px 12.35px; transform: matrix3d(1, 0, 0, 0, 0, 1, 0, 0, 0, 0, 1, 0, 0, 0, 0, 1); animation: 1s linear -0.165s infinite normal forwards running animate-jj0m1gv3emf; transform-box: view-box;"><path d="M119.36 41.66L92.56 41.66Q91.04 41.66 90.40 40.86Q89.76 40.06 89.76 38.78L89.76 38.78Q89.92 36.94 90.80 35.90Q91.68 34.86 93.44 33.74L93.44 33.74Q96.40 31.74 99.68 29.42Q102.96 27.10 105.84 24.26Q108.72 21.42 110.52 17.98Q112.32 14.54 112.32 10.22L112.32 10.22Q112.32 6.38 110.28 4.26Q108.24 2.14 104.56 2.14L104.56 2.14Q101.52 2.14 99.44 3.66Q97.36 5.18 97.36 7.98L97.36 7.98Q97.36 9.34 98 10.26Q98.64 11.18 99.32 11.70Q100 12.22 100 12.38L100 12.38Q100 12.78 99.04 13.66Q98.08 14.54 96.32 14.54L96.32 14.54Q93.76 14.54 92.32 12.94Q90.88 11.34 90.88 9.02L90.88 9.02Q90.88 5.58 93.16 3.42Q95.44 1.26 98.76 0.26Q102.08-0.74 105.28-0.74L105.28-0.74Q108.80-0.74 112.20 0.42Q115.60 1.58 117.80 4.22Q120 6.86 120 11.26L120 11.26Q120 14.94 118.36 17.94Q116.72 20.94 114.08 23.42Q111.44 25.90 108.36 27.98Q105.28 30.06 102.24 31.90Q99.20 33.74 96.88 35.58L96.88 35.58L96.88 35.98L118.32 35.98Q119.92 35.98 121.04 36.34Q122.16 36.70 122.16 38.78L122.16 38.78Q122.16 41.66 119.36 41.66L119.36 41.66" style="fill: rgb(228, 233, 50);" transform="translate(-79.480,-20.829)"></path></g><g class="path" style="opacity: 1; transform-origin: 66.64px 13.58px; transform: matrix3d(1, 0, 0, 0, 0, 1, 0, 0, 0, 0, 1, 0, 0, 0, 0, 1); animation: 1s linear 0s infinite normal forwards running animate-jj0m1gv3emf; transform-box: view-box;"><path d="M146.24 43.26L146.24 43.26Q138.72 43.26 134.16 38.58Q129.60 33.90 129.60 25.66L129.60 25.66Q129.60 19.10 132.72 13.54Q135.84 7.98 141.36 4.18Q146.88 0.38 154.16-0.90L154.16-0.90Q155.44-1.06 156.20-0.86Q156.96-0.66 156.96 0.46L156.96 0.46Q156.96 0.86 156.68 1.38Q156.40 1.90 155.52 2.14L155.52 2.14Q147.84 4.54 143.64 8.78Q139.44 13.02 138.08 18.54L138.08 18.54Q140.88 16.70 143.44 16.02Q146 15.34 148.72 15.34L148.72 15.34Q152.64 15.34 155.76 17.06Q158.88 18.78 160.76 21.74Q162.64 24.70 162.64 28.62L162.64 28.62Q162.64 33.02 160.28 36.34Q157.92 39.66 154.20 41.46Q150.48 43.26 146.24 43.26 zM146.24 40.70L146.24 40.70Q150 40.70 152.48 37.58Q154.96 34.46 154.96 29.34L154.96 29.34Q154.96 24.62 152.48 21.78Q150 18.94 146 18.94L146 18.94Q144 18.94 141.80 19.94Q139.60 20.94 137.76 22.62L137.76 22.62Q137.68 23.10 137.48 23.98Q137.28 24.86 137.28 25.74L137.28 25.74Q137.28 27.82 137.72 30.38Q138.16 32.94 139.16 35.30Q140.16 37.66 141.88 39.18Q143.60 40.70 146.24 40.70" style="fill: rgb(55, 23, 119);" transform="translate(-79.480,-20.829)"></path></g></g><text dy="0.35em" fill="#ff1646" font-family="Alice" font-size="140">2026</text>
</g>
</g><style type="text/css">@keyframes animate-jj0m1gv3emf { 0.00% {transform: translate(0.00px,0.00px) rotate(0.00deg) scale(1.00, 1.00) skew(0deg, 0.00deg) ;opacity: 1.00;}2.00% {animation-timing-function: cubic-bezier(0.20,0.39,0.50,0.97);transform: translate(0.00px,-1.08px) rotate(0.00deg) ;}36.00% {animation-timing-function: cubic-bezier(0.50,0.03,0.80,0.61);transform: translate(0.00px,-10.00px) rotate(0.00deg) ;}72.00% {transform: translate(0.00px,0.00px) rotate(0.00deg) ;}74.00% {animation-timing-function: cubic-bezier(0.23,0.43,0.48,0.91);transform: translate(0.00px,0.00px) rotate(0.00deg) scale(1.00, 0.95) ;}86.00% {animation-timing-function: cubic-bezier(0.52,0.09,0.77,0.57);transform: translate(0.00px,0.00px) rotate(0.00deg) scale(1.00, 0.80) ;}100.00% {animation-timing-function: cubic-bezier(0.52,0.09,0.77,0.57);transform: translate(0.00px,0.00px) rotate(0.00deg) scale(1.00, 1.00) ;} }</style><!-- [ldio] generated by https://loading.io --></svg>